<?xml version="1.0" encoding="UTF-8"?>
<svg xmlns="http://www.w3.org/2000/svg" viewBox="0 0 221.43 137.85">
  <defs>
    <style>
      .cls-1 {
        fill: #75c9da;
      }

      .cls-2 {
        fill: #5a2f10;
      }

      .cls-3 {
        fill: #f07e26;
      }

      .cls-4 {
        isolation: isolate;
      }

      .cls-5 {
        mix-blend-mode: multiply;
      }

      .cls-6 {
        fill: #fff;
      }
    </style>
  </defs>
  <g class="cls-4">
    <g id="Ebene_1">
      <g>
        <g class="cls-5">
          <path class="cls-6" d="M113.05,19.35c-5.68,4.84-10.47,10.63-14.31,17.29-4.82,8.34-7.63,17.39-8.37,26.96h21.67c6.91,0,13.33,1.97,18.69,5.33.84-.62,1.64-1.3,2.41-2.02,5.6-5.26,8.68-12.25,8.68-19.68,0-15.07-12.81-27.39-28.77-27.88ZM68.77,19.32c-7.98,0-15.47,2.92-21.11,8.22-5.6,5.27-8.69,12.26-8.69,19.69,0,6.11,2.11,11.77,5.69,16.37h41.7c.75-10.29,3.73-20,8.91-28.96,3.31-5.73,7.28-10.86,11.88-15.32h-38.38ZM95.27,103.24c-4.32-7.52-7.12-15.6-8.35-24.11-.1-.66-.19-1.33-.27-2-.08-.66-.15-1.33-.2-2-.19-2.08-.28-4.2-.28-6.33,0-.4,0-.8.02-1.2h-51.62c-7.97,0-15.47,2.92-21.1,8.22-5.61,5.27-8.69,12.26-8.69,19.69,0,15.38,13.37,27.9,29.79,27.9h77.47c.17,0,.34,0,.51-.01-6.94-5.48-12.74-12.24-17.28-20.16ZM130.74,73.81h0c-.58-.46-1.17-.87-1.79-1.27-.64-.42-1.3-.81-1.98-1.17-4.39-2.4-9.49-3.77-14.92-3.77h-21.85c-.02.4-.02.8-.02,1.2,0,2.13.1,4.25.29,6.33.06.67.13,1.34.22,2,.08.67.17,1.34.28,2,1.2,7.8,3.81,15.21,7.78,22.12,5,8.72,11.61,15.95,19.68,21.51,5.54-1.12,10.62-3.72,14.72-7.57,5.6-5.26,8.68-12.25,8.68-19.68,0-8.76-4.33-16.59-11.08-21.7ZM207.81,36.64c-5.63-9.86-13.37-17.8-22.99-23.62-9.61-5.79-20.18-8.74-31.41-8.74s-21.98,2.95-31.59,8.74c-1.43.86-2.82,1.78-4.17,2.74,15.97,2.53,28.17,15.68,28.17,31.47,0,8.55-3.53,16.57-9.94,22.59-.58.54-1.17,1.06-1.78,1.54,7.17,5.85,11.72,14.51,11.72,24.15,0,8.55-3.53,16.57-9.94,22.59-3.68,3.46-8.06,6.03-12.83,7.57,9.28,5.32,19.43,8.02,30.18,8.02s21.79-2.94,31.4-8.73c9.63-5.81,17.39-13.79,23.08-23.71,5.69-9.92,8.58-20.83,8.58-32.45s-2.85-22.31-8.48-32.16Z"/>
        </g>
        <path class="cls-3" d="M216.79,68.81c0,11.69-2.9,22.69-8.64,32.7-5.74,10-13.56,18.04-23.26,23.88-9.69,5.84-20.34,8.81-31.66,8.81s-21.06-2.72-30.42-8.09l-.98-.56,1.07-.35c4.76-1.54,9.01-4.05,12.64-7.46,6.31-5.92,9.78-13.82,9.78-22.22,0-9.12-4.2-17.79-11.53-23.77l-.48-.39.49-.39c.54-.42,1.11-.92,1.74-1.51,6.31-5.92,9.78-13.82,9.78-22.22,0-15.41-11.67-28.43-27.74-30.98l-1.21-.19.99-.71c1.42-1,2.83-1.93,4.21-2.76,9.7-5.85,20.42-8.81,31.84-8.81s21.97,2.96,31.67,8.81c9.71,5.87,17.51,13.88,23.17,23.8,5.67,9.92,8.54,20.82,8.54,32.41Z"/>
        <path class="cls-1" d="M112.55,123.4c-.17.01-.34.01-.51.01H34.57c-16.42,0-29.79-12.52-29.79-27.9,0-7.43,3.08-14.42,8.69-19.69,5.63-5.3,13.13-8.22,21.1-8.22h51.62c-.02.4-.02.8-.02,1.2,0,2.13.09,4.25.28,6.33.05.67.12,1.34.2,2,.08.67.17,1.34.27,2,1.23,8.51,4.03,16.59,8.35,24.11,4.54,7.92,10.34,14.68,17.28,20.16Z"/>
        <path class="cls-2" d="M141.82,95.51c0,7.43-3.08,14.42-8.68,19.68-4.1,3.85-9.18,6.45-14.72,7.57-8.07-5.56-14.68-12.79-19.68-21.51-3.97-6.91-6.58-14.32-7.78-22.12-.11-.66-.2-1.33-.28-2-.09-.66-.16-1.33-.22-2-.19-2.08-.29-4.2-.29-6.33,0-.4,0-.8.02-1.2h21.85c5.43,0,10.53,1.37,14.92,3.77.68.36,1.34.75,1.98,1.17.62.4,1.21.81,1.79,1.27h.01c6.75,5.11,11.08,12.94,11.08,21.7Z"/>
        <path class="cls-2" d="M141.82,47.23c0,7.43-3.08,14.42-8.68,19.68-.77.72-1.57,1.4-2.41,2.02-5.36-3.36-11.78-5.33-18.69-5.33h-21.67c.74-9.57,3.55-18.62,8.37-26.96,3.84-6.66,8.63-12.45,14.31-17.29,15.96.49,28.77,12.81,28.77,27.88Z"/>
        <path class="cls-1" d="M107.15,19.32c-4.6,4.46-8.57,9.59-11.88,15.32-5.18,8.96-8.16,18.67-8.91,28.96h-41.7c-3.58-4.6-5.69-10.26-5.69-16.37,0-7.43,3.09-14.42,8.69-19.69,5.64-5.3,13.13-8.22,21.11-8.22h38.38Z"/>
      </g>
    </g>
  </g>
</svg>